@startuml
class FormatDetails {
    + Init(formatter:SmartFormatter, originalFormat:Format, originalArgs:IList<object>, formatCache:FormatCache, provider:IFormatProvider, output:IOutput) : void
}
class "IList`1"<T> {
}
FormatDetails --> "Formatter" SmartFormatter
FormatDetails --> "OriginalFormat" Format
FormatDetails --> "OriginalArgs<object>" "IList`1"
FormatDetails --> "FormatCache" FormatCache
FormatDetails --> "Provider" IFormatProvider
FormatDetails --> "Output" IOutput
FormatDetails --> "FormattingException" FormattingException
FormatDetails --> "Settings" SmartSettings
@enduml
