@startuml
class GooglePurchase {
    + isAcknowledged : bool <<get>>
    + purchaseState : int <<get>>
    + orderId : string <<get>>
    + receipt : string <<get>>
    + signature : string <<get>>
    + originalJson : string <<get>>
    + purchaseToken : string <<get>>
    + sku : string? <<get>>
    + <<virtual>> IsAcknowledged() : bool
    + <<virtual>> IsPurchased() : bool
    + <<virtual>> IsPending() : bool
}
class "List`1"<T> {
}
IGooglePurchase <|-- GooglePurchase
GooglePurchase --> "skus<string>" "List`1"
@enduml
