@startuml
class SmartFormatter {
    +  <<event>> OnFormattingFailure : EventHandler<FormattingErrorEventArgs> 
    + SmartFormatter()
    + GetNotEmptyFormatterExtensionNames() : List<string>
    + AddExtensions(sourceExtensions:ISource[]) : void
    + AddExtensions(formatterExtensions:IFormatter[]) : void
    + GetSourceExtension() : T
    + GetFormatterExtension() : T
    + Format(format:string, args:object[]) : string
    + Format(args:IList<object>, format:string) : string
    + Format(provider:IFormatProvider, format:string, args:object[]) : string
    + Format(provider:IFormatProvider, args:IList<object>, format:string) : string
    + FormatInto(output:IOutput, format:string, args:object[]) : void
    + FormatWithCache(cache:FormatCache, format:string, args:IList<object>) : string
    + FormatWithCache(cache:FormatCache, format:string, formatProvider:IFormatProvider, args:IList<object>) : string
    + FormatWithCacheInto(cache:FormatCache, output:IOutput, format:string, args:object[]) : void
    + <<virtual>> Format(formattingInfo:FormattingInfo) : void
    + OnBeforeSerialize() : void
    + OnAfterDeserialize() : void
}
class "List`1"<T> {
}
ISerializationCallbackReceiver <|-- SmartFormatter
SmartFormatter --> "SourceExtensions<ISource>" "List`1"
SmartFormatter --> "FormatterExtensions<IFormatter>" "List`1"
SmartFormatter --> "Parser" Parser
SmartFormatter --> "Settings" SmartSettings
@enduml
