@startuml
class ProjectTablesPopup <<partial>> {
    + ProjectTablesPopup()
    + RefreshLabels() : void
}
class "PopupField`1"<T> {
}
class NoTables {
    + <<override>> ToString() : string
    + <<override>> RemoveEntry(entryReference:TableEntryReference) : void
}
class UxmlFactory <<new>> {
}
class "UxmlFactory`1"<T> {
}
"PopupField`1" "<LocalizationTableCollection>" <|-- ProjectTablesPopup
IDisposable <|-- ProjectTablesPopup
ProjectTablesPopup --> "value" LocalizationTableCollection
ProjectTablesPopup +-- NoTables
LocalizationTableCollection <|-- NoTables
ProjectTablesPopup +-- UxmlFactory
"UxmlFactory`1" "<ProjectTablesPopup>" <|-- UxmlFactory
@enduml
