@startuml
abstract class "LocalizedReferencePropertyDrawer`1"<TCollection> {
    + LocalizedReferencePropertyDrawer()
    + Dispose() : void
    + <<override>> GetDataForProperty(property:SerializedProperty) : Data
    + <<override>> CreatePropertyData(property:SerializedProperty) : Data
    + <<override>> OnGUI(data:Data, position:Rect, property:SerializedProperty, label:GUIContent) : void
    + <<override>> GetPropertyHeight(data:Data, property:SerializedProperty, label:GUIContent) : float
}
class "PropertyDrawerExtended`1"<T> {
}
class Styles <<static>> {
}
class Data {
    + warningMessageHeight : float
    + deferredSetReference : (TCollection collection, SharedTableData.SharedTableEntry entry) ?
    + NeedsInitializing : bool <<get>> <<protected set>> = true
    + SelectedTableIndex : int <<get>> <<set>>
    + <<override>> Reset() : void
    + <<virtual>> Init(property:SerializedProperty) : void
}
"PropertyDrawerExtended`1" "<LocalizedReferencePropertyDrawer<TCollection>.Data>" <|-- "LocalizedReferencePropertyDrawer`1"
IDisposable <|-- "LocalizedReferencePropertyDrawer`1"
"LocalizedReferencePropertyDrawer`1" +-- Styles
Styles o-> "addLocale" GUIContent
Styles o-> "addTable" GUIContent
Styles o-> "addTableCollection" GUIContent
Styles o-> "addTableEntry" GUIContent
Styles o-> "defaultArg" GUIContent
Styles o-> "entryName" GUIContent
Styles o-> "useFallback" GUIContent
Styles o-> "noTableSelected" GUIContent
Styles o-> "mixedValueContent" GUIContent
Styles o-> "previewArguments" GUIContent
Styles o-> "selectedTable" GUIContent
Styles o-> "variableName" GUIContent
Styles o-> "waitForCompletion" GUIContent
"LocalizedReferencePropertyDrawer`1" +-- Data
PropertyDrawerExtendedData <|-- Data
Data --> "rootProperty" SerializedProperty
Data --> "serializedObject" SerializedObject
Data --> "tableReference" SerializedTableReference
Data --> "tableEntryReference" SerializedTableEntryReference
Data --> "fallbackState" SerializedProperty
Data --> "waitForCompletion" SerializedProperty
Data --> "assetType" Type
Data --> "entryNameLabel" GUIContent
Data --> "warningMessage" GUIContent
Data --> "SelectedTableCollection" TCollection
Data --> "FieldLabel" GUIContent
@enduml
