@startuml
class LocalizedStringPropertyDrawer {
    + <<override>> CreatePropertyData(property:SerializedProperty) : Data
    + <<override>> OnGUI(data:Data, position:Rect, property:SerializedProperty, label:GUIContent) : void
    + <<override>> GetPropertyHeight(data:Data, property:SerializedProperty, label:GUIContent) : float
}
class "LocalizedReferencePropertyDrawer`1"<T> {
}
class StringPropertyData {
    + expandedSessionKey : string
    + StringPropertyData()
    + CreateSmartFormatFieldForTable(table:LocalizationTable) : SmartFormatFieldIMGUI
    + <<override>> Reset() : void
    + <<override>> Init(property:SerializedProperty) : void
}
class LocaleField {
    + Expanded : bool <<get>> <<set>>
    + LocaleField(expandedSessionKey:string)
}
class "List`1"<T> {
}
"LocalizedReferencePropertyDrawer`1" "<StringTableCollection>" <|-- LocalizedStringPropertyDrawer
LocalizedStringPropertyDrawer +-- StringPropertyData
Data <|-- StringPropertyData
StringPropertyData --> "localizedString" LocalizedString
StringPropertyData --> "variableArguments" ReorderableListExtended
StringPropertyData --> "LocaleFields<LocaleField>" "List`1"
StringPropertyData +-- LocaleField
LocaleField --> "Locale" Locale
LocaleField --> "SmartEditor" SmartFormatFieldIMGUI
@enduml
