@startuml
class TableEntryTreeViewItem {
    + TableEntryTreeViewItem(collection:LocalizationTableCollection, sharedEntry:SharedTableData.SharedTableEntry, id:int, depth:int)
}
class EntryTreeView {
    + EntryTreeView(assetType:Type, selected:LocalizationTableCollection, selectionHandler:Action<LocalizationTableCollection, SharedTableData.SharedTableEntry>)
}
class TableEntryTreeView {
    + TableEntryTreeView()
    + TableEntryTreeView(assetType:Type, selectionHandler:Action<LocalizationTableCollection, SharedTableData.SharedTableEntry>)
}
TreeViewItem <|-- TableEntryTreeViewItem
TableEntryTreeViewItem --> "TableCollection" LocalizationTableCollection
TableEntryTreeView <|-- EntryTreeView
TreeView <|-- TableEntryTreeView
TableEntryTreeView --> "Root" TreeViewItem
@enduml
