@startuml
interface IProgressBar {
}
interface INotifications {
}
class Notifications {
    + ProgressBar(title:string, operationInfo:string, totalSteps:int) : IProgressBar
    + DisplayDialog(title:string, dialogContent:string, ok:string) : bool
}
IDisposable <|-- IProgressBar
INotifications <|-- Notifications
@enduml
