@startuml
class "ObjectPool`1"<T> {
    + CountAll : int <<get>>
    + CountActive : int <<get>>
    + CountInactive : int <<get>>
    + ObjectPool(createFunc:Func<T>, actionOnGet:Action<T>, actionOnRelease:Action<T>, actionOnDestroy:Action<T>, collectionCheck:bool, defaultCapacity:int, maxSize:int)
    + Get() : T
    + Get(v:T) : PooledObject<T>
    + Release(element:T) : void
    + Clear() : void
    + Dispose() : void
}
class "IObjectPool`1"<T> {
}
IDisposable <|-- "ObjectPool`1"
"IObjectPool`1" "<T>" <|-- "ObjectPool`1"
@enduml
