@startuml
class StandardPurchasingModule {
    + <<const>> k_PackageVersion : string = "3.0.1"
    + Version : string <<get>>
    + useFakeStoreAlways : bool <<get>> <<set>>
    + {static} Instance() : StandardPurchasingModule
    + {static} Instance(androidStore:AppStore) : StandardPurchasingModule
    + <<override>> Configure() : void
}
class StoreInstance {
}
class MicrosoftConfiguration {
    + MicrosoftConfiguration(module:StandardPurchasingModule)
    + useMockBillingSystem : bool <<get>> <<set>>
}
AbstractPurchasingModule <|-- StandardPurchasingModule
IAndroidStoreSelection <|-- StandardPurchasingModule
StandardPurchasingModule --> "appStore" AppStore
StandardPurchasingModule --> "useFakeStoreUIMode" FakeStoreUIMode
StandardPurchasingModule +-- StoreInstance
StandardPurchasingModule +-- MicrosoftConfiguration
IMicrosoftConfiguration <|-- MicrosoftConfiguration
@enduml
