@startuml
class StringTableEntry {
    + Value : string <<get>> <<set>>
    + IsSmart : bool <<get>> <<set>>
    + RemoveFromTable() : void
    + GetLocalizedString() : string
    + GetLocalizedString(args:object[]) : string
    + GetLocalizedString(args:IList<object>) : string
    + GetLocalizedString(formatProvider:IFormatProvider, args:IList<object>) : string
    + GetLocalizedString(formatProvider:IFormatProvider, args:IList<object>, pseudoLocale:PseudoLocale) : string
}
class StringTable {
    + GenerateCharacterSet() : string
    + <<override>> CreateTableEntry() : StringTableEntry
}
class "DetailedLocalizationTable`1"<T> {
}
TableEntry <|-- StringTableEntry
StringTableEntry --> "FormatCache" FormatCache
"DetailedLocalizationTable`1" "<StringTableEntry>" <|-- StringTable
@enduml
