@startuml
class ProfileWindow {
    + ProfileIndex : int <<get>> <<set>>
}
class PathPairRenamePopup {
    + PathPairRenamePopup(labelWidth:float, profileGroupType:ProfileGroupType, settings:AddressableAssetSettings)
    + <<override>> GetWindowSize() : Vector2
    + <<override>> OnGUI(windowRect:Rect) : void
}
class ProfileRenameVariablePopup {
    + ProfileRenameVariablePopup(labelWidth:float, profileVariable:AddressableAssetProfileSettings.ProfileIdData, settings:AddressableAssetSettings)
    + <<override>> GetWindowSize() : Vector2
    + <<override>> OnGUI(windowRect:Rect) : void
}
class ProfileNewVariablePopup {
    + ProfileNewVariablePopup(width:float, height:float, xOffset:float, profileTreeView:ProfileTreeView, settings:AddressableAssetSettings)
    + <<override>> GetWindowSize() : Vector2
    + <<override>> OnGUI(windowRect:Rect) : void
}
class ProfileNewPathPairPopup {
    + ProfileNewPathPairPopup(width:float, height:float, xOffset:float, profileTreeView:ProfileTreeView, settings:AddressableAssetSettings)
    + <<override>> GetWindowSize() : Vector2
    + <<override>> OnGUI(windowRect:Rect) : void
}
EditorWindow <|-- ProfileWindow
ProfileWindow +-- PathPairRenamePopup
PopupWindowContent <|-- PathPairRenamePopup
ProfileWindow +-- ProfileRenameVariablePopup
PopupWindowContent <|-- ProfileRenameVariablePopup
ProfileWindow +-- ProfileNewVariablePopup
PopupWindowContent <|-- ProfileNewVariablePopup
ProfileWindow +-- ProfileNewPathPairPopup
PopupWindowContent <|-- ProfileNewPathPairPopup
@enduml
