@startuml
class BuildContent {
    + BuildContent()
    + BuildContent(assets:IEnumerable<GUID>)
}
class BundleBuildContent {
    + BundleBuildContent()
    + BundleBuildContent(bundleBuilds:IEnumerable<AssetBundleBuild>)
}
class "List`1"<T> {
}
class "Dictionary`2"<T1,T2> {
}
IBuildContent <|-- BuildContent
BuildContent --> "Assets<GUID>" "List`1"
BuildContent --> "Scenes<GUID>" "List`1"
IBundleBuildContent <|-- BundleBuildContent
BundleBuildContent --> "Assets<GUID>" "List`1"
BundleBuildContent --> "Scenes<GUID>" "List`1"
BundleBuildContent --> "Addresses<GUID,string>" "Dictionary`2"
BundleBuildContent --> "BundleLayout<string,List<GUID>>" "Dictionary`2"
@enduml
