@startuml
class InitializationOperationExampleAsync {
}
class InitializationOperationExampleAsyncEvent {
}
class InitializationOperationExampleSync {
}
class SelectedLocaleChangedExample {
}
MonoBehaviour <|-- InitializationOperationExampleAsync
MonoBehaviour <|-- InitializationOperationExampleAsyncEvent
MonoBehaviour <|-- InitializationOperationExampleSync
MonoBehaviour <|-- SelectedLocaleChangedExample
@enduml
