@startuml
class KeyCommentColumn {
    + <<const>> ColumnHeader : string = "Key Comments"
    + <<override>> PushHeader(collection:StringTableCollection, header:string, headerNote:string) : void
    + <<override>> PushMetadata(metadata:Comment, value:string, note:string) : void
    + <<override>> PullMetadata(keyEntry:SharedTableData.SharedTableEntry, metadata:Comment, cellValue:string, cellNote:string) : void
}
class "KeyMetadataColumn`1"<T> {
}
"KeyMetadataColumn`1" "<Comment>" <|-- KeyCommentColumn
KeyCommentColumn --> "PushFields" PushFields
@enduml
