@startuml
class LabeledLabel {
    + Wrap : bool <<set>>
    + Text : string <<set>>
    + Label : string <<set>>
    + LabeledLabel()
    + LabeledLabel(label:string, text:string, wrap:bool)
}
class UxmlFactory <<new>> {
}
class "UxmlFactory`2"<T1,T2> {
}
VisualElement <|-- LabeledLabel
LabeledLabel --> "contentContainer" VisualElement
LabeledLabel +-- UxmlFactory
"UxmlFactory`2" "<LabeledLabel,UxmlTraits>" <|-- UxmlFactory
@enduml
