@startuml
class RibbonButton {
    + Toggled : bool <<get>> <<set>>
    + <<const>> StyleClass : string = "ribbon__button"
    + <<const>> StyleClassToggled : string = "ribbon__button--toggled"
    + RibbonButton()
    + SetButtonEnabled(enabled:bool, disablingTooltipReason:string) : void
}
class UxmlFactory <<new>> {
}
class UxmlTraits <<new>> {
    + <<override>> Init(ve:VisualElement, bag:IUxmlAttributes, cc:CreationContext) : void
}
class "UxmlFactory`2"<T1,T2> {
}
class "IEnumerable`1"<T> {
}
Button <|-- RibbonButton
RibbonButton +-- UxmlFactory
"UxmlFactory`2" "<RibbonButton,UxmlTraits>" <|-- UxmlFactory
RibbonButton +-- UxmlTraits
UxmlTraits --> "uxmlChildElementsDescription<UxmlChildElementDescription>" "IEnumerable`1"
@enduml
