@startuml
class Ribbon {
    + ShowHelpButton : bool <<get>>
    + ShowMenuButton : bool <<get>>
    + InitialOption : int <<get>>
    + m_CurrentOption : int = 0
    + CurrentOption : int <<get>> <<set>>
    +  <<event>> Clicked : Action<int> 
    +  <<event>> HelpClicked : Action 
    +  <<event>> MenuClicked : Action 
    + Ribbon()
    + Setup() : void
    + ButtonClicked(index:int) : void
}
class Content <<static>> {
    + {static} <<readonly>> OpenManualTooltip : string
}
class Styles <<static>> {
    + {static} <<readonly>> HelpIconButtonClass : string
    + {static} <<readonly>> MenuIconButtonClass : string
}
class UxmlFactory <<new>> {
}
class UxmlTraits <<new>> {
    + <<override>> Init(ve:VisualElement, bag:IUxmlAttributes, cc:CreationContext) : void
}
class "UxmlFactory`2"<T1,T2> {
}
class "IEnumerable`1"<T> {
}
VisualElement <|-- Ribbon
Ribbon --> "Alignment" Align
Ribbon --> "contentContainer" VisualElement
Ribbon +-- Content
Ribbon +-- Styles
Ribbon +-- UxmlFactory
"UxmlFactory`2" "<Ribbon,UxmlTraits>" <|-- UxmlFactory
Ribbon +-- UxmlTraits
UxmlTraits --> "uxmlChildElementsDescription<UxmlChildElementDescription>" "IEnumerable`1"
@enduml
