@startuml
class UdpSynchronizationApi <<static>> {
    + {static} GetAccessToken(authCode:string) : object
    + {static} GetOrgId(accessToken:string, projectGuid:string) : object
    + {static} CreateStoreItem(accessToken:string, orgId:string, iapItem:IapItem) : object
    + {static} UpdateStoreItem(accessToken:string, iapItem:IapItem) : object
    + {static} SearchStoreItem(accessToken:string, orgId:string, appItemSlug:string) : object
}
class TokenRequest {
    + code : string
    + client_id : string
    + client_secret : string
    + grant_type : string
    + redirect_uri : string
    + refresh_token : string
}
class PriceSets {
}
class PurchaseFee {
    + priceType : string = "CUSTOM"
}
class PriceMap {
}
class PriceDetail {
    + price : string
    + currency : string = "USD"
}
class GeneralResponse {
    + message : string
}
class Properties {
    + description : string
}
class IapItemResponse {
    + id : string
}
class IapItem {
    + id : string
    + slug : string
    + name : string
    + masterItemSlug : string
    + consumable : bool = true
    + type : string = "IAP"
    + status : string = "STAGE"
    + ownerId : string
    + ownerType : string = "ORGANIZATION"
    + ValidationCheck() : string
}
class TokenInfo {
    + access_token : string
    + refresh_token : string
}
class IapItemSearchResponse {
    + total : int
}
struct ReqStruct {
}
class OrgIdResponse {
    + org_foreign_key : string
}
class OrgRoleResponse {
}
class ErrorResponse {
    + code : string
}
class ErrorDetail {
    + field : string
    + reason : string
}
class "List`1"<T> {
}
PriceSets o-> "PurchaseFee" PurchaseFee
PurchaseFee o-> "priceMap" PriceMap
PriceMap o-> "DEFAULT<PriceDetail>" "List`1"
GeneralResponse <|-- IapItemResponse
IapItem o-> "priceSets" PriceSets
IapItem o-> "properties" Properties
GeneralResponse <|-- TokenInfo
GeneralResponse <|-- IapItemSearchResponse
IapItemSearchResponse --> "results<IapItem>" "List`1"
ReqStruct --> "request" UnityWebRequest
ReqStruct --> "resp" GeneralResponse
ReqStruct --> "iapItem" IapItem
GeneralResponse <|-- OrgIdResponse
GeneralResponse <|-- OrgRoleResponse
OrgRoleResponse --> "roles<string>" "List`1"
GeneralResponse <|-- ErrorResponse
@enduml
