@startuml
class AnalyzeResultData {
    + OnAfterDeserialize() : void
    + OnBeforeSerialize() : void
}
class AddressablesAnalyzeResultData {
    + OnAfterDeserialize() : void
    + OnBeforeSerialize() : void
}
class RuleToResults {
    + RuleName : string
    + RuleToResults(ruleName:string, results:List<AnalyzeRule.AnalyzeResult>)
}
class "List`1"<T> {
}
ScriptableObject <|-- AnalyzeResultData
ISerializationCallbackReceiver <|-- AnalyzeResultData
ISerializationCallbackReceiver <|-- AddressablesAnalyzeResultData
AddressablesAnalyzeResultData +-- RuleToResults
RuleToResults --> "Results<AnalyzeRule.AnalyzeResult>" "List`1"
@enduml
