@startuml
class "ChainOperation`2"<TObject,TObjectDependency> {
    + ChainOperation()
    + <<override>> GetDependencies(deps:List<AsyncOperationHandle>) : void
    + Init(dependentOp:AsyncOperationHandle<TObjectDependency>, callback:Func<AsyncOperationHandle<TObjectDependency>, AsyncOperationHandle<TObject>>, releaseDependenciesOnFailure:bool) : void
}
class "ChainOperationTypelessDepedency`1"<TObject> {
    + ChainOperationTypelessDepedency()
    + <<override>> GetDependencies(deps:List<AsyncOperationHandle>) : void
    + Init(dependentOp:AsyncOperationHandle, callback:Func<AsyncOperationHandle, AsyncOperationHandle<TObject>>, releaseDependenciesOnFailure:bool) : void
}
class "AsyncOperationBase`1"<T> {
}
"AsyncOperationBase`1" "<TObject>" <|-- "ChainOperation`2"
"AsyncOperationBase`1" "<TObject>" <|-- "ChainOperationTypelessDepedency`1"
@enduml
