@startuml
class ProjectConfigData {
    + {static} ShowSubObjectsInGroupView : bool <<get>> <<set>>
    + {static} GenerateBuildLayout : bool <<get>> <<set>>
    + {static} AddBuildReportFilePath(reportFilePath:string) : void
    + {static} RemoveBuildReportFilePathAtIndex(index:int) : void
    + {static} RemoveBuildReportFilePath(reportFilePath:string) : void
    + {static} ClearBuildReportFilePaths() : void
    + {static} ActivePlayModeIndex : int <<get>> <<set>>
    + {static} PostProfilerEvents : bool <<get>> <<set>>
    + {static} LocalLoadSpeed : long <<get>> <<set>>
    + {static} RemoteLoadSpeed : long <<get>> <<set>>
    + {static} HierarchicalSearch : bool <<get>> <<set>>
    + {static} ShowGroupsAsHierarchy : bool <<get>> <<set>>
}
class ConfigSaveData {
}
enum ReportFileFormat {
    TXT,
    JSON,
}
class "List`1"<T> {
}
ProjectConfigData --> "BuildLayoutReportFileFormat" ReportFileFormat
ProjectConfigData --> "BuildReportFilePaths<string>" "List`1"
ProjectConfigData +-- ConfigSaveData
ProjectConfigData +-- ReportFileFormat
@enduml
